<?xml version="1.0" standalone="no"?><!DOCTYPE svg PUBLIC "-//W3C//DTD SVG 1.1//EN" "http://www.w3.org/Graphics/SVG/1.1/DTD/svg11.dtd"><svg t="1663853990955" class="icon" viewBox="0 0 1024 1024" version="1.1" xmlns="http://www.w3.org/2000/svg" p-id="3893" xmlns:xlink="http://www.w3.org/1999/xlink" width="200" height="200"><path d="M866.461538 630.153846h78.769231v78.769231h-78.769231zM866.461538 551.384615h78.769231v78.769231h-78.769231zM866.461538 472.615385h78.769231v78.76923h-78.769231zM787.692308 708.923077h78.76923v78.769231h-78.76923z" fill="#1E2028" p-id="3894"></path><path d="M787.692308 630.153846h78.76923v78.769231h-78.76923zM787.692308 551.384615h78.76923v78.769231h-78.76923zM787.692308 472.615385h78.76923v78.76923h-78.76923z" fill="#5E76B6" p-id="3895" data-spm-anchor-id="a313x.7781069.0.i17" class=""></path><path d="M787.692308 393.846154h78.76923v78.769231h-78.76923zM708.923077 787.692308h78.769231v78.76923h-78.769231z" fill="#1E2028" p-id="3896"></path><path d="M708.923077 708.923077h78.769231v78.769231h-78.769231z" fill="#5E76B6" p-id="3897" data-spm-anchor-id="a313x.7781069.0.i22" class=""></path><path d="M708.923077 630.153846h78.769231v78.769231h-78.769231zM708.923077 551.384615h78.769231v78.769231h-78.769231zM708.923077 472.615385h78.769231v78.76923h-78.769231z" fill="#7991D1" p-id="3898" data-spm-anchor-id="a313x.7781069.0.i27" class="selected"></path><path d="M708.923077 393.846154h78.769231v78.769231h-78.769231z" fill="#5E76B6" p-id="3899" data-spm-anchor-id="a313x.7781069.0.i16" class=""></path><path d="M708.923077 315.076923h78.769231v78.769231h-78.769231zM708.923077 236.307692h78.769231v78.769231h-78.769231zM708.923077 157.538462h78.769231v78.76923h-78.769231zM630.153846 787.692308h78.769231v78.76923h-78.769231z" fill="#1E2028" p-id="3900"></path><path d="M630.153846 708.923077h78.769231v78.769231h-78.769231z" fill="#5E76B6" p-id="3901" data-spm-anchor-id="a313x.7781069.0.i18" class=""></path><path d="M630.153846 630.153846h78.769231v78.769231h-78.769231z" fill="#7991D1" p-id="3902" data-spm-anchor-id="a313x.7781069.0.i26" class="selected"></path><path d="M630.153846 551.384615h78.769231v78.769231h-78.769231z" fill="#1E2028" p-id="3903"></path><path d="M630.153846 472.615385h78.769231v78.76923h-78.769231zM630.153846 393.846154h78.769231v78.769231h-78.769231z" fill="#7991D1" p-id="3904" data-spm-anchor-id="a313x.7781069.0.i28" class="selected"></path><path d="M630.153846 315.076923h78.769231v78.769231h-78.769231zM630.153846 236.307692h78.769231v78.769231h-78.769231zM630.153846 157.538462h78.769231v78.76923h-78.769231z" fill="#5E76B6" p-id="3905" data-spm-anchor-id="a313x.7781069.0.i15" class=""></path><path d="M630.153846 78.769231h78.769231v78.769231h-78.769231zM551.384615 787.692308h78.769231v78.76923h-78.769231z" fill="#1E2028" p-id="3906"></path><path d="M551.384615 708.923077h78.769231v78.769231h-78.769231z" fill="#5E76B6" p-id="3907" data-spm-anchor-id="a313x.7781069.0.i21" class=""></path><path d="M551.384615 630.153846h78.769231v78.769231h-78.769231z" fill="#1E2028" p-id="3908"></path><path d="M551.384615 551.384615h78.769231v78.769231h-78.769231zM551.384615 472.615385h78.769231v78.76923h-78.769231zM551.384615 393.846154h78.769231v78.769231h-78.769231zM551.384615 315.076923h78.769231v78.769231h-78.769231zM551.384615 236.307692h78.769231v78.769231h-78.769231zM551.384615 157.538462h78.769231v78.76923h-78.769231zM551.384615 78.769231h78.769231v78.769231h-78.769231z" fill="#7991D1" p-id="3909" data-spm-anchor-id="a313x.7781069.0.i14" class="selected"></path><path d="M551.384615 0h78.769231v78.769231h-78.769231zM472.615385 945.230769h78.76923v78.769231h-78.76923zM472.615385 866.461538h78.76923v78.769231h-78.76923zM472.615385 787.692308h78.76923v78.76923h-78.76923zM472.615385 708.923077h78.76923v78.769231h-78.76923zM472.615385 630.153846h78.76923v78.769231h-78.76923zM472.615385 551.384615h78.76923v78.769231h-78.76923zM472.615385 472.615385h78.76923v78.76923h-78.76923zM472.615385 393.846154h78.76923v78.769231h-78.76923zM472.615385 315.076923h78.76923v78.769231h-78.76923zM472.615385 236.307692h78.76923v78.769231h-78.76923z" fill="#1E2028" p-id="3910"></path><path d="M472.615385 157.538462h78.76923v78.76923h-78.76923zM472.615385 78.769231h78.76923v78.769231h-78.76923z" fill="#7991D1" p-id="3911" data-spm-anchor-id="a313x.7781069.0.i13" class="selected"></path><path d="M472.615385 0h78.76923v78.769231h-78.76923zM393.846154 787.692308h78.769231v78.76923h-78.769231z" fill="#1E2028" p-id="3912"></path><path d="M393.846154 708.923077h78.769231v78.769231h-78.769231z" fill="#5E76B6" p-id="3913" data-spm-anchor-id="a313x.7781069.0.i19" class=""></path><path d="M393.846154 630.153846h78.769231v78.769231h-78.769231z" fill="#7991D1" p-id="3914" data-spm-anchor-id="a313x.7781069.0.i24" class="selected"></path><path d="M393.846154 551.384615h78.769231v78.769231h-78.769231z" fill="#1E2028" p-id="3915"></path><path d="M393.846154 472.615385h78.769231v78.76923h-78.769231zM393.846154 393.846154h78.769231v78.769231h-78.769231zM393.846154 315.076923h78.769231v78.769231h-78.769231zM393.846154 236.307692h78.769231v78.769231h-78.769231zM393.846154 157.538462h78.769231v78.76923h-78.769231z" fill="#7991D1" p-id="3916" data-spm-anchor-id="a313x.7781069.0.i29" class="selected"></path><path d="M393.846154 78.769231h78.769231v78.769231h-78.769231z" fill="#C0CCEF" p-id="3917" data-spm-anchor-id="a313x.7781069.0.i8" class=""></path><path d="M393.846154 0h78.769231v78.769231h-78.769231zM315.076923 787.692308h78.769231v78.76923h-78.769231z" fill="#1E2028" p-id="3918"></path><path d="M315.076923 708.923077h78.769231v78.769231h-78.769231z" fill="#5E76B6" p-id="3919" data-spm-anchor-id="a313x.7781069.0.i20" class=""></path><path d="M315.076923 630.153846h78.769231v78.769231h-78.769231zM315.076923 551.384615h78.769231v78.769231h-78.769231z" fill="#7991D1" p-id="3920" data-spm-anchor-id="a313x.7781069.0.i25" class="selected"></path><path d="M315.076923 472.615385h78.769231v78.76923h-78.769231z" fill="#1E2028" p-id="3921"></path><path d="M315.076923 393.846154h78.769231v78.769231h-78.769231z" fill="#7991D1" p-id="3922" data-spm-anchor-id="a313x.7781069.0.i30" class="selected"></path><path d="M315.076923 315.076923h78.769231v78.769231h-78.769231zM315.076923 236.307692h78.769231v78.769231h-78.769231zM315.076923 157.538462h78.769231v78.76923h-78.769231z" fill="#C0CCEF" p-id="3923" data-spm-anchor-id="a313x.7781069.0.i9" class=""></path><path d="M315.076923 78.769231h78.769231v78.769231h-78.769231zM236.307692 787.692308h78.769231v78.76923h-78.769231z" fill="#1E2028" p-id="3924"></path><path d="M236.307692 708.923077h78.769231v78.769231h-78.769231z" fill="#C0CCEF" p-id="3925" data-spm-anchor-id="a313x.7781069.0.i12" class=""></path><path d="M236.307692 630.153846h78.769231v78.769231h-78.769231zM236.307692 551.384615h78.769231v78.769231h-78.769231zM236.307692 472.615385h78.769231v78.76923h-78.769231z" fill="#7991D1" p-id="3926" data-spm-anchor-id="a313x.7781069.0.i23" class="selected"></path><path d="M236.307692 393.846154h78.769231v78.769231h-78.769231z" fill="#C0CCEF" p-id="3927" data-spm-anchor-id="a313x.7781069.0.i10" class=""></path><path d="M236.307692 315.076923h78.769231v78.769231h-78.769231zM236.307692 236.307692h78.769231v78.769231h-78.769231zM236.307692 157.538462h78.769231v78.76923h-78.769231zM157.538462 708.923077h78.76923v78.769231H157.538462z" fill="#1E2028" p-id="3928"></path><path d="M157.538462 630.153846h78.76923v78.769231H157.538462zM157.538462 551.384615h78.76923v78.769231H157.538462zM157.538462 472.615385h78.76923v78.76923H157.538462z" fill="#C0CCEF" p-id="3929" data-spm-anchor-id="a313x.7781069.0.i11" class=""></path><path d="M157.538462 393.846154h78.76923v78.769231H157.538462zM78.769231 630.153846h78.769231v78.769231H78.769231zM78.769231 551.384615h78.769231v78.769231H78.769231zM78.769231 472.615385h78.769231v78.76923H78.769231z" fill="#1E2028" p-id="3930"></path></svg>