<?xml version="1.0" standalone="no"?><!DOCTYPE svg PUBLIC "-//W3C//DTD SVG 1.1//EN" "http://www.w3.org/Graphics/SVG/1.1/DTD/svg11.dtd"><svg t="1663843015167" class="icon" viewBox="0 0 1024 1024" version="1.1" xmlns="http://www.w3.org/2000/svg" p-id="7277" xmlns:xlink="http://www.w3.org/1999/xlink" width="200" height="200"><path d="M866.461538 630.153846h78.769231v78.769231h-78.769231zM866.461538 551.384615h78.769231v78.769231h-78.769231zM866.461538 472.615385h78.769231v78.76923h-78.769231zM787.692308 708.923077h78.76923v78.769231h-78.76923z" fill="#1E2028" p-id="7278"></path><path d="M787.692308 630.153846h78.76923v78.769231h-78.76923zM787.692308 551.384615h78.76923v78.769231h-78.76923zM787.692308 472.615385h78.76923v78.76923h-78.76923z" fill="#38B269" p-id="7279"></path><path d="M787.692308 393.846154h78.76923v78.769231h-78.76923zM708.923077 787.692308h78.769231v78.76923h-78.769231z" fill="#1E2028" p-id="7280"></path><path d="M708.923077 708.923077h78.769231v78.769231h-78.769231z" fill="#38B269" p-id="7281"></path><path d="M708.923077 630.153846h78.769231v78.769231h-78.769231zM708.923077 551.384615h78.769231v78.769231h-78.769231zM708.923077 472.615385h78.769231v78.76923h-78.769231z" fill="#60EF9A" p-id="7282"></path><path d="M708.923077 393.846154h78.769231v78.769231h-78.769231z" fill="#38B269" p-id="7283"></path><path d="M708.923077 315.076923h78.769231v78.769231h-78.769231zM708.923077 236.307692h78.769231v78.769231h-78.769231zM708.923077 157.538462h78.769231v78.76923h-78.769231zM630.153846 787.692308h78.769231v78.76923h-78.769231z" fill="#1E2028" p-id="7284"></path><path d="M630.153846 708.923077h78.769231v78.769231h-78.769231z" fill="#38B269" p-id="7285"></path><path d="M630.153846 630.153846h78.769231v78.769231h-78.769231z" fill="#60EF9A" p-id="7286"></path><path d="M630.153846 551.384615h78.769231v78.769231h-78.769231z" fill="#1E2028" p-id="7287"></path><path d="M630.153846 472.615385h78.769231v78.76923h-78.769231zM630.153846 393.846154h78.769231v78.769231h-78.769231z" fill="#60EF9A" p-id="7288"></path><path d="M630.153846 315.076923h78.769231v78.769231h-78.769231zM630.153846 236.307692h78.769231v78.769231h-78.769231zM630.153846 157.538462h78.769231v78.76923h-78.769231z" fill="#38B269" p-id="7289"></path><path d="M630.153846 78.769231h78.769231v78.769231h-78.769231zM551.384615 787.692308h78.769231v78.76923h-78.769231z" fill="#1E2028" p-id="7290"></path><path d="M551.384615 708.923077h78.769231v78.769231h-78.769231z" fill="#38B269" p-id="7291"></path><path d="M551.384615 630.153846h78.769231v78.769231h-78.769231z" fill="#1E2028" p-id="7292"></path><path d="M551.384615 551.384615h78.769231v78.769231h-78.769231zM551.384615 472.615385h78.769231v78.76923h-78.769231zM551.384615 393.846154h78.769231v78.769231h-78.769231zM551.384615 315.076923h78.769231v78.769231h-78.769231zM551.384615 236.307692h78.769231v78.769231h-78.769231zM551.384615 157.538462h78.769231v78.76923h-78.769231zM551.384615 78.769231h78.769231v78.769231h-78.769231z" fill="#60EF9A" p-id="7293"></path><path d="M551.384615 0h78.769231v78.769231h-78.769231zM472.615385 945.230769h78.76923v78.769231h-78.76923zM472.615385 866.461538h78.76923v78.769231h-78.76923zM472.615385 787.692308h78.76923v78.76923h-78.76923zM472.615385 708.923077h78.76923v78.769231h-78.76923zM472.615385 630.153846h78.76923v78.769231h-78.76923zM472.615385 551.384615h78.76923v78.769231h-78.76923zM472.615385 472.615385h78.76923v78.76923h-78.76923zM472.615385 393.846154h78.76923v78.769231h-78.76923zM472.615385 315.076923h78.76923v78.769231h-78.76923zM472.615385 236.307692h78.76923v78.769231h-78.76923z" fill="#1E2028" p-id="7294"></path><path d="M472.615385 157.538462h78.76923v78.76923h-78.76923zM472.615385 78.769231h78.76923v78.769231h-78.76923z" fill="#60EF9A" p-id="7295"></path><path d="M472.615385 0h78.76923v78.769231h-78.76923zM393.846154 787.692308h78.769231v78.76923h-78.769231z" fill="#1E2028" p-id="7296"></path><path d="M393.846154 708.923077h78.769231v78.769231h-78.769231z" fill="#38B269" p-id="7297"></path><path d="M393.846154 630.153846h78.769231v78.769231h-78.769231z" fill="#60EF9A" p-id="7298"></path><path d="M393.846154 551.384615h78.769231v78.769231h-78.769231z" fill="#1E2028" p-id="7299"></path><path d="M393.846154 472.615385h78.769231v78.76923h-78.769231zM393.846154 393.846154h78.769231v78.769231h-78.769231zM393.846154 315.076923h78.769231v78.769231h-78.769231zM393.846154 236.307692h78.769231v78.769231h-78.769231zM393.846154 157.538462h78.769231v78.76923h-78.769231z" fill="#60EF9A" p-id="7300"></path><path d="M393.846154 78.769231h78.769231v78.769231h-78.769231z" fill="#AAF2C7" p-id="7301"></path><path d="M393.846154 0h78.769231v78.769231h-78.769231zM315.076923 787.692308h78.769231v78.76923h-78.769231z" fill="#1E2028" p-id="7302"></path><path d="M315.076923 708.923077h78.769231v78.769231h-78.769231z" fill="#38B269" p-id="7303"></path><path d="M315.076923 630.153846h78.769231v78.769231h-78.769231zM315.076923 551.384615h78.769231v78.769231h-78.769231z" fill="#60EF9A" p-id="7304"></path><path d="M315.076923 472.615385h78.769231v78.76923h-78.769231z" fill="#1E2028" p-id="7305"></path><path d="M315.076923 393.846154h78.769231v78.769231h-78.769231z" fill="#60EF9A" p-id="7306"></path><path d="M315.076923 315.076923h78.769231v78.769231h-78.769231zM315.076923 236.307692h78.769231v78.769231h-78.769231zM315.076923 157.538462h78.769231v78.76923h-78.769231z" fill="#AAF2C7" p-id="7307"></path><path d="M315.076923 78.769231h78.769231v78.769231h-78.769231zM236.307692 787.692308h78.769231v78.76923h-78.769231z" fill="#1E2028" p-id="7308"></path><path d="M236.307692 708.923077h78.769231v78.769231h-78.769231z" fill="#AAF2C7" p-id="7309"></path><path d="M236.307692 630.153846h78.769231v78.769231h-78.769231zM236.307692 551.384615h78.769231v78.769231h-78.769231zM236.307692 472.615385h78.769231v78.76923h-78.769231z" fill="#60EF9A" p-id="7310"></path><path d="M236.307692 393.846154h78.769231v78.769231h-78.769231z" fill="#AAF2C7" p-id="7311"></path><path d="M236.307692 315.076923h78.769231v78.769231h-78.769231zM236.307692 236.307692h78.769231v78.769231h-78.769231zM236.307692 157.538462h78.769231v78.76923h-78.769231zM157.538462 708.923077h78.76923v78.769231H157.538462z" fill="#1E2028" p-id="7312"></path><path d="M157.538462 630.153846h78.76923v78.769231H157.538462zM157.538462 551.384615h78.76923v78.769231H157.538462zM157.538462 472.615385h78.76923v78.76923H157.538462z" fill="#AAF2C7" p-id="7313"></path><path d="M157.538462 393.846154h78.76923v78.769231H157.538462zM78.769231 630.153846h78.769231v78.769231H78.769231zM78.769231 551.384615h78.769231v78.769231H78.769231zM78.769231 472.615385h78.769231v78.76923H78.769231z" fill="#1E2028" p-id="7314"></path></svg>